<mxfile host="Electron" modified="2024-05-24T10:19:09.576Z" agent="Mozilla/5.0 (Windows NT 10.0; Win64; x64) AppleWebKit/537.36 (KHTML, like Gecko) draw.io/24.4.7 Chrome/124.0.6367.207 Electron/30.0.6 Safari/537.36" etag="1Lv7kEkoXUeFjJqbhY3g" version="24.4.7" type="device">
  <diagram name="第 1 页" id="IFvHqelut-aamGOp70n6">
    <mxGraphModel dx="792" dy="1180" grid="1" gridSize="10" guides="1" tooltips="1" connect="1" arrows="1" fold="1" page="1" pageScale="1" pageWidth="827" pageHeight="1169" math="0" shadow="0">
      <root>
        <mxCell id="0" />
        <mxCell id="1" parent="0" />
        <mxCell id="061C1O3NjKcNCeXrXLHe-1" value="g.&lt;b&gt;GET&lt;/b&gt;(&quot;kingKong&quot;, listenbooks.GetKingKong)" style="rounded=1;whiteSpace=wrap;html=1;" parent="1" vertex="1">
          <mxGeometry x="360" y="320" width="230" height="60" as="geometry" />
        </mxCell>
        <mxCell id="061C1O3NjKcNCeXrXLHe-2" value="&lt;b&gt;SectionList&lt;/b&gt;(c *gin.Context)" style="rounded=1;whiteSpace=wrap;html=1;" parent="1" vertex="1">
          <mxGeometry x="360" y="470" width="230" height="70" as="geometry" />
        </mxCell>
        <mxCell id="061C1O3NjKcNCeXrXLHe-3" value="&lt;span style=&quot;text-wrap: wrap;&quot;&gt;router&lt;/span&gt;" style="text;html=1;align=center;verticalAlign=middle;resizable=0;points=[];autosize=1;strokeColor=none;fillColor=none;" parent="1" vertex="1">
          <mxGeometry x="265" y="338" width="50" height="30" as="geometry" />
        </mxCell>
        <mxCell id="061C1O3NjKcNCeXrXLHe-4" value="&lt;span style=&quot;text-wrap: wrap;&quot;&gt;controller&lt;/span&gt;" style="text;html=1;align=center;verticalAlign=middle;resizable=0;points=[];autosize=1;strokeColor=none;fillColor=none;" parent="1" vertex="1">
          <mxGeometry x="255" y="490" width="70" height="30" as="geometry" />
        </mxCell>
        <mxCell id="061C1O3NjKcNCeXrXLHe-5" value="&lt;b&gt;GetSectionListSub&lt;/b&gt;(ctx context.Context, uid string, tabId, pageNum int64, deviceId string, headerInfo param.RequestHeaderInfo) (res []vo.ListenBookSectionListSub, err error)" style="rounded=1;whiteSpace=wrap;html=1;" parent="1" vertex="1">
          <mxGeometry x="360" y="610" width="430" height="80" as="geometry" />
        </mxCell>
        <mxCell id="061C1O3NjKcNCeXrXLHe-6" value="service" style="text;html=1;align=center;verticalAlign=middle;resizable=0;points=[];autosize=1;strokeColor=none;fillColor=none;" parent="1" vertex="1">
          <mxGeometry x="260" y="635" width="60" height="30" as="geometry" />
        </mxCell>
        <mxCell id="061C1O3NjKcNCeXrXLHe-7" value="&lt;b&gt;GetRemoteListenBookSectionListSub&lt;/b&gt;(ctx context.Context, uid string, tabId, num int64, headerInfo param.RequestHeaderInfo) (res []remote.DMSListenBookSectionListSub, err error)" style="rounded=1;whiteSpace=wrap;html=1;" parent="1" vertex="1">
          <mxGeometry x="360" y="760" width="430" height="80" as="geometry" />
        </mxCell>
      </root>
    </mxGraphModel>
  </diagram>
</mxfile>
